PathFileType  4	(X/Y/Z) C:\Users\antoi\Documents\MyRepositories\mobilecap\ResultsAnalysis
DataRate	CameraRate	NumFrames	NumMarkers	Units	OrigDataRate	OrigDataStartFrame	OrigNumFrames
100.0	100.0	4	51	mm	100.0	801	1280
Frame#	Time	r_knee			r_shank_antsup			r_ankle			r_calc			r_5meta			r_toe			L_knee			L_shank_antsup			L_ankle			L_calc			L_5meta			L_toe			r_sh2			r_sh3			r_sh4			L_sh2			L_sh3			r_thigh1			r_thigh2			r_thigh3			r_thigh4			r_thigh5			L_thigh1			L_thigh2			L_thigh3			L_thigh4			r.ASIS			r.PSIS			L.ASIS			L.PSIS			C7			R_Shoulder			L_Shoulder			R_Sternum			L_Sternum			R_humerus			R_elbow_med			R_elbow_lat			R_forearm			R_wrist_radius			R_wrist_ulna			L_humerus			L_elbow_med			L_elbow_lat			L_forearm			L_wrist_radius			L_wrist_ulna			R_HJC			L_HJC			R_HJC_reg			L_HJC_reg			
		X1	Y1	Z1	X2	Y2	Z2	X3	Y3	Z3	X4	Y4	Z4	X5	Y5	Z5	X6	Y6	Z6	X7	Y7	Z7	X8	Y8	Z8	X9	Y9	Z9	X10	Y10	Z10	X11	Y11	Z11	X12	Y12	Z12	X13	Y13	Z13	X14	Y14	Z14	X15	Y15	Z15	X16	Y16	Z16	X17	Y17	Z17	X18	Y18	Z18	X19	Y19	Z19	X20	Y20	Z20	X21	Y21	Z21	X22	Y22	Z22	X23	Y23	Z23	X24	Y24	Z24	X25	Y25	Z25	X26	Y26	Z26	X27	Y27	Z27	X28	Y28	Z28	X29	Y29	Z29	X30	Y30	Z30	X31	Y31	Z31	X32	Y32	Z32	X33	Y33	Z33	X34	Y34	Z34	X35	Y35	Z35	X36	Y36	Z36	X37	Y37	Z37	X38	Y38	Z38	X39	Y39	Z39	X40	Y40	Z40	X41	Y41	Z41	X42	Y42	Z42	X43	Y43	Z43	X44	Y44	Z44	X45	Y45	Z45	X46	Y46	Z46	X47	Y47	Z47	X48	Y48	Z48	X49	Y49	Z49	X50	Y50	Z50	X51	Y51	Z51	

801	8.00000000	-252.60989	470.08067	-323.85879	-217.78397	357.20079	-345.41773	-291.22756	87.37517	-377.31110	-335.81494	51.09294	-437.69773	-185.26368	40.16029	-335.54045	-144.30348	59.46667	-374.07556	-259.62102	478.10966	-737.13470	-215.38805	374.92681	-732.95421	-300.56106	96.20446	-808.31375	-337.89721	52.27535	-764.04998	-182.98164	36.01602	-851.48941	-138.13888	57.42360	-804.64920	-229.54701	247.05672	-364.33123	-273.23864	352.79176	-293.61337	-302.56562	248.38068	-321.29363	-281.03209	412.59341	-780.36569	-298.02581	297.33082	-816.94263	-168.06519	776.71934	-324.45601	-162.67101	666.83154	-323.96310	-207.13638	638.61708	-282.30997	-271.75583	767.60872	-281.89743	-261.75833	653.06524	-280.60355	-195.41173	761.23304	-688.31686	-182.71527	629.48089	-717.84127	-306.41597	764.72997	-700.27388	-292.15187	625.91413	-726.84452	-157.74545	932.16138	-358.97588	-334.23475	987.26889	-439.96422	-146.05795	916.25088	-602.80794	-329.60890	981.51115	-554.83675	-288.01120	1424.27456	-462.45824	-248.22200	1395.90600	-308.08533	-222.22678	1409.58716	-614.42306	-163.98283	1379.71120	-434.66340	-159.35913	1376.64416	-479.38250	-256.12325	1275.06412	-235.07646	-372.05546	1091.65919	-272.54775	-338.58770	1102.86530	-200.07953	-241.00086	1017.16054	-213.43152	-168.11161	951.97320	-244.41063	-183.87614	928.27469	-220.28120	-221.25239	1265.45838	-691.22750	-316.19767	1082.29024	-658.87047	-298.98818	1096.13217	-734.03473	-209.34768	1038.53598	-730.99420	-112.24774	960.11226	-689.10116	-124.32706	942.67322	-713.80899	-253.84590	867.97368	-385.67008	-239.95863	852.00160	-573.86097	-234.57137	865.86285	-393.08658	-228.08326	857.78689	-554.21026	
802	8.01000000	-251.91408	470.04019	-324.27369	-217.23858	357.12370	-345.78610	-291.10940	87.32858	-377.49457	-335.75365	51.09646	-437.70292	-185.21633	40.03865	-335.48402	-144.27049	59.29549	-374.11859	-259.12854	478.05856	-737.31978	-215.10278	374.88878	-732.98921	-300.49388	96.15256	-808.31842	-337.87620	52.28767	-764.08076	-182.97303	36.00354	-851.51135	-138.13840	57.34262	-804.64726	-229.22858	247.19444	-364.47325	-272.74409	352.88236	-294.07917	-302.44802	248.49764	-321.62271	-280.61039	412.65938	-780.59592	-297.41776	297.09872	-817.15663	-167.81997	776.85577	-324.80983	-162.21840	666.86584	-324.29744	-206.73444	638.67398	-282.50773	-271.54691	767.54109	-282.08804	-261.16256	652.97223	-280.90653	-195.25745	761.20180	-688.33673	-182.31780	629.33912	-717.80103	-306.17801	764.51011	-700.58219	-291.82309	625.68803	-726.94089	-157.70925	931.80218	-358.85421	-334.16980	987.34868	-439.97378	-146.27305	915.99425	-603.24699	-329.64937	981.56230	-554.89132	-287.22909	1424.26792	-462.24100	-247.46478	1395.81064	-307.99012	-221.53014	1409.62752	-614.12056	-163.25610	1379.67603	-434.49646	-158.67369	1376.59033	-479.31120	-255.40782	1275.04978	-234.67153	-371.26525	1091.41848	-271.72118	-337.53457	1102.89637	-199.39232	-238.97178	1018.70577	-213.66028	-165.16845	954.78382	-245.56327	-180.39818	930.80612	-221.26226	-220.52682	1265.68347	-691.33274	-315.27389	1082.21407	-659.72852	-297.59714	1096.08305	-734.58144	-207.47400	1039.05393	-730.40306	-110.32295	961.32301	-686.86577	-122.07224	943.80667	-711.92847	-253.97781	867.83097	-385.79400	-240.27153	851.91415	-574.00318	-234.79730	865.63113	-392.98773	-228.44532	857.50001	-554.47097	
803	8.02000000	-251.19319	470.02955	-324.60125	-216.62743	357.05221	-346.10050	-291.01010	87.28791	-377.71819	-335.72610	51.10840	-437.72709	-185.18434	39.93272	-335.46666	-144.25841	59.12977	-374.19073	-258.60780	478.11730	-737.68173	-214.80509	374.82615	-732.95826	-300.44247	96.10725	-808.32661	-337.87521	52.28832	-764.08224	-182.96477	36.00271	-851.55877	-138.14154	57.31845	-804.65892	-228.65762	246.94646	-364.60610	-272.27619	353.07766	-294.38770	-301.25687	248.27635	-322.12299	-280.11903	412.63589	-780.81824	-297.13546	297.06774	-817.13303	-167.63273	777.08039	-325.11357	-161.80283	666.98754	-324.52179	-206.33105	638.67179	-282.73377	-271.36385	767.48645	-282.21476	-260.63959	652.85836	-281.14896	-195.16962	761.18008	-688.34115	-181.90152	629.31614	-717.86272	-306.06283	764.32992	-700.70923	-291.47001	625.46596	-727.19288	-157.78576	931.43594	-358.92245	-334.14707	987.44513	-439.91312	-146.36813	915.94399	-603.38314	-329.72822	981.58186	-554.93590	-286.40105	1424.29576	-462.13659	-246.53838	1395.69441	-307.96776	-220.78576	1409.61115	-614.03200	-162.51422	1379.61634	-434.39448	-157.93293	1376.50277	-479.22292	-254.62536	1275.01552	-234.36902	-370.46503	1091.21995	-270.98324	-336.38574	1102.92298	-198.72594	-236.75093	1020.40704	-213.82352	-162.11774	957.71461	-247.04202	-176.84820	933.47511	-222.32934	-219.66034	1265.97483	-691.73343	-314.26586	1082.20573	-660.56890	-296.07716	1096.09016	-735.15591	-205.36118	1039.63627	-729.86515	-108.85538	963.53594	-685.36726	-119.64051	944.98730	-709.89250	-254.12834	867.66428	-385.92810	-240.48278	851.92447	-574.15702	-234.99079	865.69317	-392.98090	-228.78555	857.46024	-554.49519	
804	8.03000000	-250.35597	470.00970	-324.96546	-215.94939	357.03926	-346.32995	-290.92665	87.34556	-377.80372	-335.69176	51.16762	-437.76971	-185.12281	39.85129	-335.50466	-144.21996	58.93053	-374.29289	-258.08394	478.10635	-737.92844	-214.39311	374.76519	-733.03600	-300.44328	96.12791	-808.34215	-337.87725	52.28228	-764.06870	-182.97038	36.01166	-851.59804	-138.13464	57.33414	-804.68357	-228.04769	246.61653	-364.76594	-271.78724	353.31969	-294.64238	-299.40957	247.95235	-322.67483	-279.58576	412.48520	-781.00664	-296.81562	297.15334	-817.20012	-167.49303	777.27418	-325.31235	-161.34100	667.14271	-324.68726	-205.77476	638.57302	-283.07037	-271.17932	767.34016	-282.33477	-260.29676	652.78967	-281.30606	-195.14521	761.13083	-688.34210	-181.56369	629.36381	-717.95975	-306.01839	764.12044	-700.75735	-291.07056	625.26630	-727.58495	-157.71345	931.49841	-359.14696	-334.14216	987.52147	-439.87161	-146.32543	916.11250	-603.15517	-329.86866	981.58680	-555.00340	-285.56344	1424.35517	-462.07635	-245.51349	1395.58731	-307.84858	-220.03197	1409.50463	-614.13374	-161.85295	1379.38029	-434.88649	-157.12992	1376.37632	-479.22279	-253.73922	1274.97545	-234.16600	-369.59534	1091.01683	-270.27624	-335.13647	1102.86638	-198.12040	-234.36572	1022.17935	-214.09259	-159.04946	960.75680	-248.83653	-173.09171	936.37567	-223.42844	-218.73046	1266.23452	-692.11165	-313.12616	1082.20022	-661.58646	-294.32742	1096.16366	-735.97920	-203.10741	1040.27899	-729.31150	-107.52525	966.46539	-684.31164	-116.95171	946.20522	-707.54346	-254.07066	867.72730	-385.93919	-240.43762	852.01038	-574.17024	-234.81364	866.01707	-392.99773	-228.82957	857.70684	-554.21330	
